<?xml version="1.0" standalone="no"?>
<!DOCTYPE svg PUBLIC "-//W3C//DTD SVG 20010904//EN"
 "http://www.w3.org/TR/2001/REC-SVG-20010904/DTD/svg10.dtd">
<svg version="1.0" xmlns="http://www.w3.org/2000/svg"
 width="1096.000000pt" height="780.000000pt" viewBox="0 0 1096.000000 780.000000"
 preserveAspectRatio="xMidYMid meet">

<g transform="translate(0.000000,780.000000) scale(0.100000,-0.100000)"
fill="#000000" stroke="none">
<path d="M5064 6990 c-1059 -87 -2026 -744 -2504 -1700 -228 -455 -331 -891
-331 -1400 -1 -726 228 -1378 685 -1955 101 -127 341 -367 471 -470 568 -453
1225 -685 1942 -686 117 0 239 2 270 6 468 52 771 139 1143 325 825 413 1426
1181 1634 2088 85 368 98 818 36 1194 -134 812 -580 1532 -1252 2021 -448 326
-1000 531 -1554 577 -134 11 -404 11 -540 0z m-1752 -2563 c62 -31 126 -94
158 -157 24 -47 50 -156 50 -212 l0 -38 -330 0 c-273 0 -332 -2 -336 -14 -8
-22 16 -136 38 -180 34 -69 67 -105 121 -134 46 -24 63 -27 147 -27 86 0 100
3 142 28 58 34 96 80 124 149 19 47 26 53 54 56 31 3 32 3 25 -28 -22 -102
-101 -202 -188 -241 -44 -20 -69 -23 -162 -24 -92 0 -118 4 -156 21 -135 63
-210 200 -212 389 -3 211 99 378 262 430 73 23 195 15 263 -18z m1541 13 c113
-35 200 -133 231 -259 23 -92 27 -153 15 -236 -15 -108 -42 -175 -95 -234 -62
-68 -132 -101 -231 -108 -147 -10 -255 33 -313 124 l-30 47 0 -227 0 -227 -30
0 -30 0 0 560 0 560 30 0 29 0 3 -87 3 -88 22 42 c47 86 164 152 274 153 31 0
86 -9 122 -20z m1297 -12 c124 -57 210 -201 210 -355 l0 -53 -329 0 c-182 0
-332 -3 -334 -7 -3 -5 -1 -37 4 -72 17 -118 73 -205 164 -254 59 -32 212 -32
271 0 55 29 109 94 133 157 16 45 22 51 50 54 39 4 40 -10 7 -90 -35 -86 -78
-133 -154 -170 -63 -31 -72 -33 -177 -33 -102 0 -114 2 -168 29 -130 66 -197
198 -197 386 0 217 102 380 268 427 72 20 186 12 252 -19z m759 18 c108 -29
176 -103 188 -205 l6 -51 -31 0 c-28 0 -32 4 -38 38 -16 90 -69 142 -167 162
-166 33 -316 -45 -304 -158 9 -84 82 -130 258 -162 80 -15 187 -48 218 -69 13
-8 37 -33 52 -55 26 -35 29 -47 29 -116 0 -91 -19 -127 -92 -176 -86 -58 -287
-72 -389 -27 -93 42 -169 142 -169 225 0 35 2 38 29 38 25 0 30 -5 36 -32 16
-74 63 -135 130 -171 34 -19 56 -22 145 -22 93 0 111 3 154 25 61 31 87 65 93
122 12 104 -60 159 -255 198 -233 47 -302 101 -302 237 0 72 23 118 76 155 76
54 223 73 333 44z m786 -7 c47 -14 77 -31 104 -58 39 -39 71 -112 71 -163 0
-27 -3 -29 -32 -26 -31 3 -33 6 -39 46 -14 107 -134 175 -278 157 -117 -14
-181 -63 -188 -142 -8 -96 45 -136 238 -179 183 -41 219 -54 266 -101 47 -47
58 -82 51 -172 -10 -136 -143 -212 -352 -199 -94 6 -153 28 -211 79 -45 40
-85 119 -85 172 0 34 2 37 29 37 26 0 30 -4 41 -49 14 -59 65 -123 124 -154
35 -19 56 -22 146 -22 89 1 112 4 153 24 67 33 92 72 92 143 0 49 -4 61 -29
87 -38 40 -102 66 -225 91 -122 25 -190 49 -237 85 -49 37 -64 73 -64 152 0
56 4 75 25 105 65 95 246 135 400 87z m-3917 -164 c67 -91 126 -165 130 -165
4 0 63 74 131 165 123 164 124 165 162 165 22 0 39 -3 39 -7 -1 -5 -65 -93
-145 -196 l-144 -188 153 -202 c83 -111 155 -208 160 -215 5 -9 -5 -12 -37
-12 l-44 0 -134 185 c-74 102 -137 185 -140 185 -4 0 -69 -83 -145 -185 -137
-183 -139 -185 -176 -185 -21 0 -38 2 -38 5 0 3 68 96 150 206 83 110 153 205
155 212 3 7 -60 96 -140 200 -80 103 -145 189 -145 192 0 3 19 5 43 5 l43 0
122 -165z m1532 83 l0 -81 30 41 c49 68 129 110 227 119 l63 6 0 -30 c0 -30
-1 -30 -58 -36 -72 -6 -124 -32 -178 -89 -79 -82 -79 -79 -82 -390 l-3 -278
-35 0 -34 0 0 410 0 410 35 0 35 0 0 -82z"/>
<path d="M3078 4386 c-60 -16 -119 -57 -153 -106 -34 -50 -65 -132 -65 -175
l0 -35 295 0 295 0 0 23 c0 39 -28 126 -54 171 -34 58 -97 106 -159 123 -62
16 -97 16 -159 -1z"/>
<path d="M4648 4387 c-88 -25 -158 -97 -188 -194 -51 -166 -26 -348 61 -447
56 -64 100 -81 209 -81 79 0 102 4 136 22 93 50 148 136 166 263 28 189 -49
372 -180 427 -49 20 -149 25 -204 10z"/>
<path d="M5926 4389 c-115 -27 -204 -137 -223 -275 l-6 -44 297 0 296 0 0 28
c0 15 -6 51 -14 79 -43 163 -187 250 -350 212z"/>
</g>
</svg>
